<?xml version="1.0" encoding="utf-8"?>
<!-- Generator: Adobe Illustrator 15.1.0, SVG Export Plug-In . SVG Version: 6.00 Build 0)  -->
<!DOCTYPE svg PUBLIC "-//W3C//DTD SVG 1.1//EN" "http://www.w3.org/Graphics/SVG/1.1/DTD/svg11.dtd">
<svg version="1.1" xmlns="http://www.w3.org/2000/svg" xmlns:xlink="http://www.w3.org/1999/xlink" x="0px" y="0px" width="400px"
	 height="400px" viewBox="0 0 400 400" enable-background="new 0 0 400 400" xml:space="preserve">
<g id="Tło">
	<rect y="-0.037" width="400" height="399.217"/>
</g>
<g id="Warstwa_1">
	<path stroke="#FFFFFF" stroke-width="14" stroke-miterlimit="10" d="M194.549,96.863l-85.483,2.314c0,0-42.398-0.924-69.042,20.617
		C13.387,141.34,9.447,180.721,9.681,202.269c0.235,21.546,13.667,78.767,60.466,91.972c46.793,13.206,97.994,9.032,127.648,9.266
		c29.654,0.234,71.583-0.462,88.268-1.391c16.675-0.925,91.277-0.689,101.932-85.251c2.015-30.784,1.853-44.25-5.332-63.014
		c-7.177-18.77-27.333-50.044-76.681-53.75C256.642,96.394,194.549,96.863,194.549,96.863z"/>
</g>
<g id="Warstwa_3">
	<g>
		<path fill="#FFFFFF" d="M96.254,151.34c0,10.155-8.238,18.394-18.403,18.394c-10.155,0-18.396-8.238-18.396-18.394
			c0-10.164,8.241-18.403,18.396-18.403C88.016,132.937,96.254,141.176,96.254,151.34z"/>
		<path fill="#FFFFFF" d="M338.792,151.34c0,10.155-8.238,18.394-18.403,18.394c-10.155,0-18.396-8.238-18.396-18.394
			c0-10.164,8.241-18.403,18.396-18.403C330.554,132.937,338.792,141.176,338.792,151.34z"/>
	</g>
	<g>
		<path fill="#FFFFFF" d="M96.254,246.863c0,10.154-8.238,18.393-18.403,18.393c-10.155,0-18.396-8.238-18.396-18.393
			c0-10.164,8.241-18.404,18.396-18.404C88.016,228.459,96.254,236.699,96.254,246.863z"/>
		<path fill="#FFFFFF" d="M338.792,246.863c0,10.154-8.238,18.393-18.403,18.393c-10.155,0-18.396-8.238-18.396-18.393
			c0-10.164,8.241-18.404,18.396-18.404C330.554,228.459,338.792,236.699,338.792,246.863z"/>
	</g>
</g>
<g id="Warstwa_4">
	<circle fill="#E30613" stroke="#FFFFFF" stroke-width="10" stroke-miterlimit="10" cx="335.515" cy="326.838" r="43.097"/>
</g>
</svg>
